<svg width="512" height="512" viewBox="0 0 512 512" fill="none" xmlns="http://www.w3.org/2000/svg">
  <!-- Background circle -->
  <circle cx="256" cy="256" r="256" fill="#8B5CF6"/>
  
  <!-- Saree silhouette -->
  <path d="M256 80C200 80 150 120 150 180V320C150 380 200 420 256 420C312 420 362 380 362 320V180C362 120 312 80 256 80Z" fill="white" opacity="0.9"/>
  
  <!-- Saree border -->
  <path d="M256 80C200 80 150 120 150 180V320C150 380 200 420 256 420C312 420 362 380 362 320V180C362 120 312 80 256 80Z" fill="none" stroke="white" stroke-width="8"/>
  
  <!-- Decorative pattern -->
  <circle cx="200" cy="200" r="15" fill="white" opacity="0.7"/>
  <circle cx="312" cy="200" r="15" fill="white" opacity="0.7"/>
  <circle cx="256" cy="250" r="20" fill="white" opacity="0.7"/>
  <circle cx="220" cy="300" r="12" fill="white" opacity="0.7"/>
  <circle cx="292" cy="300" r="12" fill="white" opacity="0.7"/>
  
  <!-- Text -->
  <text x="256" y="480" text-anchor="middle" fill="white" font-family="Arial, sans-serif" font-size="24" font-weight="bold">Draped Dreams</text>
</svg>
